<svg width="22" height="22" viewBox="0 0 22 22" fill="none" xmlns="http://www.w3.org/2000/svg">
<path d="M5.5 2.2C5.5 1.61652 5.73179 1.05694 6.14437 0.644365C6.55695 0.231785 7.11652 0 7.7 0H14.3C14.8835 0 15.4431 0.231785 15.8556 0.644365C16.2682 1.05694 16.5 1.61652 16.5 2.2V4.4H20.9C21.1917 4.4 21.4715 4.51589 21.6778 4.72218C21.8841 4.92847 22 5.20826 22 5.5C22 5.79174 21.8841 6.07153 21.6778 6.27782C21.4715 6.48411 21.1917 6.6 20.9 6.6H19.7241L18.7704 19.9562C18.7309 20.5112 18.4825 21.0307 18.0753 21.4099C17.6681 21.7892 17.1323 22 16.5759 22H5.423C4.86655 22 4.33077 21.7892 3.92357 21.4099C3.51637 21.0307 3.26801 20.5112 3.2285 19.9562L2.277 6.6H1.1C0.808262 6.6 0.528472 6.48411 0.322183 6.27782C0.115892 6.07153 0 5.79174 0 5.5C0 5.20826 0.115892 4.92847 0.322183 4.72218C0.528472 4.51589 0.808262 4.4 1.1 4.4H5.5V2.2ZM7.7 4.4H14.3V2.2H7.7V4.4ZM4.4814 6.6L5.4241 19.8H16.577L17.5197 6.6H4.4814ZM8.8 8.8C9.09174 8.8 9.37153 8.91589 9.57782 9.12218C9.78411 9.32847 9.9 9.60826 9.9 9.9V16.5C9.9 16.7917 9.78411 17.0715 9.57782 17.2778C9.37153 17.4841 9.09174 17.6 8.8 17.6C8.50826 17.6 8.22847 17.4841 8.02218 17.2778C7.81589 17.0715 7.7 16.7917 7.7 16.5V9.9C7.7 9.60826 7.81589 9.32847 8.02218 9.12218C8.22847 8.91589 8.50826 8.8 8.8 8.8ZM13.2 8.8C13.4917 8.8 13.7715 8.91589 13.9778 9.12218C14.1841 9.32847 14.3 9.60826 14.3 9.9V16.5C14.3 16.7917 14.1841 17.0715 13.9778 17.2778C13.7715 17.4841 13.4917 17.6 13.2 17.6C12.9083 17.6 12.6285 17.4841 12.4222 17.2778C12.2159 17.0715 12.1 16.7917 12.1 16.5V9.9C12.1 9.60826 12.2159 9.32847 12.4222 9.12218C12.6285 8.91589 12.9083 8.8 13.2 8.8Z" fill="#39A145"/>
</svg>
