<svg width="100" height="100" viewBox="0 0 100 100" fill="none" xmlns="http://www.w3.org/2000/svg">
<rect x="0.5" y="0.5" width="99" height="99" rx="15.5" stroke="#1E1548"/>
<path d="M40.3039 41.4286V38H42.5065V41.4286H45.8104V43.7143H42.5065V47.1429H40.3039V43.7143H37V41.4286M43.6078 48.2857V44.8571H46.9117V41.4286H54.6209L56.6032 43.7143H60.1274C61.3388 43.7143 62.33 44.7429 62.33 46V59.7143C62.33 60.9714 61.3388 62 60.1274 62H42.5065C41.2951 62 40.3039 60.9714 40.3039 59.7143V48.2857M51.317 58.5714C56.2178 58.5714 58.6847 52.4229 55.2156 48.8114C51.7465 45.2114 45.8104 47.7714 45.8104 52.8571C45.8104 56.0114 48.2774 58.5714 51.317 58.5714ZM47.7928 52.8571C47.7928 56.1143 51.5923 57.7486 53.8059 55.44C56.0305 53.1429 54.4557 49.2 51.317 49.2C50.3832 49.203 49.4885 49.5893 48.8282 50.2745C48.1679 50.9597 47.7957 51.8881 47.7928 52.8571Z" fill="#1E1548"/>
</svg>
